<?xml version="1.0" encoding="UTF-8"?>
<svg id="Layer_1" data-name="Layer 1" xmlns="http://www.w3.org/2000/svg" viewBox="0 0 424.79 489.13">
  <path d="M300.24,423.93c9.76-6.57,22.84.77,31,6.95l-1.98-.11c6.34-3.79,13.88-6.42,21.33-5.11,11.07,3.71,12.47,22.64,25.18,23.44-7.64,1.23-12.88-6.07-16.95-11.39-2.54-3.16-5.26-7.59-9.11-8.68-6.83-.88-13.87,1.86-19.7,5.22-7.75-6.32-19.39-14.77-29.77-10.33" style="fill: #f4f6ff; stroke-width: 0px;"/>
  <path d="M219.83,181.82c-35.98.08-63.03-15.58-75.45-24.82-1.37-1.06.11-3.24,1.62-2.19,42.05,32.15,105.86,31.99,147.66,0,1.37-1.02,3.09,1.06,1.62,2.19-12.6,9.29-39.11,24.82-75.44,24.82Z" style="fill: #fff; stroke-width: 0px;"/>
  <path d="M160.64,162.92v-34.47s-1.19-3.9,13.67-6.62c7.96-1.46.66,8.23.66,8.23l-11.26,1.37c-.78.09-1.37.76-1.37,1.55v29.94h-1.71Z" style="fill: #fff; stroke-width: 0px;"/>
  <path d="M278.51,162.92v-34.47s1.19-3.9-13.67-6.62c-7.96-1.46-.66,8.23-.66,8.23l11.26,1.37c.78.09,1.37.76,1.37,1.55v29.94h1.71Z" style="fill: #fff; stroke-width: 0px;"/>
  <path d="M207.69,16.43c0-6.25,5.07-11.32,11.32-11.32,15.02.6,15.02,22.06,0,22.65-6.25,0-11.32-5.07-11.32-11.33" style="fill: #fff; stroke-width: 0px;"/>
  <path d="M219.02,30.48c-7.75,0-14.05-6.3-14.05-14.05.77-18.63,27.32-18.63,28.09,0,0,7.75-6.3,14.05-14.05,14.05ZM219.02,7.83c-4.74,0-8.6,3.86-8.6,8.6.47,11.41,16.73,11.41,17.21,0,0-4.74-3.86-8.6-8.6-8.6Z" style="fill: #fff; stroke-width: 0px;"/>
  <path d="M263.42,144.45v14.87c-13.65-1.31-28.65-3.18-44.84-3.16-15.88,0-30.59,1.87-44,3.16v-31.59l-.91-6.3v-45.29c-.55.2-1.11.4-1.62.6-1.63.67-3.48-.11-4.15-1.72-.65-1.61.11-3.48,1.74-4.14,1.61-.67,3.3-1.31,5.06-1.91,5.5-54.68,83.11-54.62,88.58.02,1.74.6,3.41,1.22,5.03,1.89,1.61.65,2.39,2.52,1.72,4.14-.51,1.23-1.69,1.96-2.94,1.96-.95,0-1.88-.53-2.78-.82v45.27l-.91,6.3v16.72Z" style="fill: #fff; stroke-width: 0px;"/>
  <path d="M171.87,162.32v-34.39l-.91-6.49v-41.72c-4.08.23-7.29-4.42-5.53-8.21,1.11-2.83,4.13-3.5,6.73-4.51,7.66-55.63,86.06-55.59,93.69.02,2.67,1.03,5.57,1.65,6.7,4.53,1.69,3.75-1.37,8.32-5.5,8.16v41.93l-.91,6.3v34.39c-15.81-1.47-30.39-3.42-47.32-3.43-16.78-.02-31.26,1.98-46.96,3.43ZM218.83,153.44c15.07,0,28.18,1.52,41.87,2.88l.03-28.98.88-6.1v-49.07l3.72,1.46c.58.2,1.2.47,1.78.63.07,0,.32-.02.42-.27.06-.15.03-.27,0-.35-.03-.08-.1-.18-.23-.23-1.86-.79-4.43-1.69-6.59-2.42-3.78-53.74-79.64-53.71-83.41-.01-2.18.73-4.57,1.57-6.6,2.42-.14.06-.21.13-.26.24-.17.32.19.77.59.59.44-.17.88-.33,1.31-.49l4.06-1.49v48.99l.91,6.49v28.59c13.58-1.36,26.61-2.89,41.52-2.88Z" style="fill: #fff; stroke-width: 0px;"/>
  <path d="M294.7,171.11c7.59,3.99-7.9,6.87-9.86,8.08v9.54l-7.28,5.03h-1.83l30.85,239.32h-170.38c.12-.62,30.73-238.52,30.85-239.32h-2.81l-7.28-5.03v-9.53c-2.37-1.15-18.75-4.82-8.88-8.4,46.48-13.24,100.21-13.17,146.62.3" style="fill: #fff; stroke-width: 0px;"/>
  <path d="M306.57,436.71h-170.38c-2.15.05-3.96-2.05-3.59-4.17.23.2,25.16-196.53,30.34-235.39-.23.09-7.68-5.23-8.05-5.43-.98-.68-1.57-1.79-1.57-2.99v-6.96c-5.8-1.87-11.95-3.82-12.01-8.46-.05-2.59,1.81-4.58,5.53-5.92,7.45-2.41,16.44-4.51,26.12-6.13,43.63-6.76,87.22-4.49,122.79,6.38,3.56,1.32,4.97,4.47,4.63,6.1-.35,4.54-6.59,6.32-11.92,7.98v7.02c0,1.19-.59,2.31-1.57,2.99l-7.14,4.93,30.41,235.97c.32,2.1-1.47,4.14-3.6,4.09ZM140.33,429.46h162.12l-30.32-235.23c-.33-2.49,1.87-4.39,4.3-4.09l4.78-3.3v-7.64c0-1.26.65-2.43,1.72-3.09,1.41-.88,4.82-1.67,7.2-2.56-39.35-11.25-94.03-12.44-138.54-.03,2.47.95,5.24,1.65,6.94,2.42,1.25.61,2.05,1.88,2.05,3.27v7.62l4.78,3.3s1.68,0,1.68,0c2.14-.05,3.95,2.03,3.59,4.15-.09.66-4.21,32.68-9.43,73.23-14.4,111.85-19.38,150.45-20.87,161.95Z" style="fill: #fff; stroke-width: 0px;"/>
  <rect x="249.24" y="72.05" width="14.82" height="53.36" style="fill: #fff; stroke-width: 0px;"/>
  <rect x="234.45" y="68.38" width="14.81" height="54.92" style="fill: #f3c623; stroke-width: 0px;"/>
  <rect x="219.59" y="68.38" width="14.81" height="54.92" style="fill: #f1b520; stroke-width: 0px;"/>
  <rect x="204.73" y="68.38" width="14.81" height="54.92" style="fill: #efa41d; stroke-width: 0px;"/>
  <rect x="189.87" y="70.2" width="14.81" height="54.92" style="fill: #ed941a; stroke-width: 0px;"/>
  <rect x="175" y="70.2" width="14.81" height="54.92" style="fill: #eb8317; stroke-width: 0px;"/>
  <path d="M207.15,17.34c0,6.25,5.07,11.33,11.32,11.33,15.02-.6,15.02-22.06,0-22.65-6.25,0-11.32,5.07-11.32,11.32" style="fill: #10375c; stroke-width: 0px;"/>
  <path d="M219.64,28.66c-24.64-.01-44.59,20.09-44.42,44.73,10.56-3.65,23.26-6.02,37.07-6.66v1.47l29.18-1.63v-4.34c17.31,1.58,21.85,4.83,22.21,5.08-2.81-21.81-21.46-38.65-44.04-38.65M257.82,62.92s-9.42-2.38-16.66-2.79c0,0,.73-13.54-14.17-25.64,0,0,23.48.2,30.83,28.43" style="fill: #10375c; stroke-width: 0px;"/>
  <polygon points="219.62 435.61 248.18 435.61 241.27 183.62 215.23 180.65 219.62 435.61" style="fill: #f4f6ff; stroke-width: 0px;"/>
  <path d="M267.75,77.9c-24.81-10.34-70.21-11.08-95.05-.24-3.89,1.49-6.28-4.14-2.42-5.87,13.14-5.41,30.66-8.39,49.34-8.39s36.2,2.98,49.34,8.39c3.19,1.33,2.23,6.11-1.21,6.11Z" style="fill: #10375c; stroke-width: 0px;"/>
  <path d="M175.22,125.4c23.8-4.94,65.03-4.94,88.83,0v34.74c-13.64-1.31-28.64-3.09-44.83-3.08-15.87.01-30.59,1.79-44,3.08v-34.74Z" style="fill: #10375c; stroke-width: 0px;"/>
  <path d="M293.58,175.53c-2.1.76-8.77,3.16-10.98,3.96-22.52-4.94-39.99-6.11-52.64-5.82h-.05c-17.36.4-25.69,3.56-25.69,3.56,84.3,0,75.53,13.74,75.53,13.74,0,0-9.34-7.33-38.48-7.33-22.9,0-25.5,6.27-25.56,8.95-.02.73.43,18.56.43,18.56l3.48,221.96h-83.63l30.85-239.32h.05l.43-3.18-4.06,3.18-5.64-3.88c-.64-.45-1.02-1.16-1.02-1.94v-8.46l-10.94-3.94c-1.2-.44-1.16-2.14.05-2.54,40.83-13.46,107-13.41,147.82-.02,1.21.4,1.23,2.1.04,2.54" style="fill: #10375c; stroke-width: 0px;"/>
  <path d="M263.54,116.56c-.08-.05-8.38-5.42-44.56-5.42s-43.12,5.32-43.19,5.38l-1.15-1.4c.28-.24,7.34-5.79,44.34-5.79s45.27,5.51,45.6,5.75l-1.05,1.48.52-.74-.52.75Z" style="fill: #10375c; stroke-width: 0px;"/>
  <path d="M263.44,86.08c-.08-.07-8.34-7.15-44.46-7.15s-43.03,7.03-43.1,7.1l-1.34-1.22c.28-.31,7.36-7.69,44.44-7.69s45.36,7.33,45.7,7.64l-1.24,1.32.62-.66-.61.67Z" style="fill: #10375c; stroke-width: 0px;"/>
  <rect x="174.32" y="73.08" width="1.81" height="52.32" style="fill: #10375c; stroke-width: 0px;"/>
  <rect x="263.15" y="73.08" width="1.81" height="52.32" style="fill: #10375c; stroke-width: 0px;"/>
  <path d="M259.67,124.44v33.43c-3.3-.34-8.18-.83-13.48-1.31v-33.85l13.48,1.73Z" style="fill: #fff; stroke-width: 0px;"/>
  <path d="M244.73,122.58v33.86c-4.5-.38-9.24-.74-13.48-1v-33.75l13.48.89Z" style="fill: #f4f6ff; stroke-width: 0px;"/>
  <path d="M145.19,173.03c-.75,0-1.36-.61-1.36-1.36v-26.76c0-.75.61-1.36,1.36-1.36s1.36.61,1.36,1.36v26.76c0,.75-.61,1.36-1.36,1.36Z" style="fill: #fff; stroke-width: 0px;"/>
  <path d="M294.47,173.03c-.75,0-1.36-.61-1.36-1.36v-26.76c0-.75.61-1.36,1.36-1.36s1.36.61,1.36,1.36v26.76c0,.75-.61,1.36-1.36,1.36Z" style="fill: #fff; stroke-width: 0px;"/>
  <path d="M178.06,142.45c-11.17,3.11-22.01,7.26-32.31,12.38-1.61.77-2.8-1.61-1.21-2.44,10.86-4.4,22.12-7.7,33.53-9.94" style="fill: #fff; stroke-width: 0px;"/>
  <path d="M261.21,143.93c-18.1-4.55-36.73-6.3-55.27-5.14l-.1-1.36c18.76-1.74,37.74-.5,56.22,3.57v3.14l-.85-.21Z" style="fill: #fff; stroke-width: 0px;"/>
  <path d="M222.42,137.35c13.08,0,26.16,1.42,38.95,4.21v1.72c-18.07-4.55-36.86-6.33-55.47-5.16,5.49-.51,11.01-.76,16.52-.76M222.42,135.98c-5.56,0-11.16.26-16.65.77l.21,2.71c19.04-1.2,38.2.72,56.75,5.55v-4.56c-13.25-2.96-26.83-4.47-40.31-4.47" style="fill: #10375c; stroke-width: 0px;"/>
  <path d="M293.91,154.83c-27.33-12.78-57.88-18.62-88.01-16.72,30.28-2.82,61.2,2.19,89.12,14.24,1.64.74.56,3.23-1.11,2.48" style="fill: #fff; stroke-width: 0px;"/>
  <path d="M214.76,14.47c0,3.99,3.24,7.23,7.23,7.23,9.58-.37,9.58-14.09,0-14.45-3.99,0-7.23,3.24-7.23,7.23" style="fill: #fff; stroke-width: 0px;"/>
  <path d="M165.97,129.2c-2.03.01-2.53-2.98-.49-3.56,13.45-3.79,33.2-5.96,54.18-5.96s40.72,2.17,54.18,5.96c2.25.69,1.37,4.08-.98,3.49-25.94-7.78-80.95-7.59-106.88.07Z" style="fill: #10375c; stroke-width: 0px;"/>
  <rect x="218.73" y="66.57" width="1.81" height="54.92" style="fill: #10375c; stroke-width: 0px;"/>
  <rect x="203.93" y="66.57" width="1.81" height="54.92" style="fill: #10375c; stroke-width: 0px;"/>
  <rect x="189.12" y="66.57" width="1.81" height="54.92" style="fill: #10375c; stroke-width: 0px;"/>
  <rect x="233.54" y="68.38" width="1.81" height="54.92" style="fill: #10375c; stroke-width: 0px;"/>
  <rect x="248.34" y="68.38" width="1.81" height="54.92" style="fill: #10375c; stroke-width: 0px;"/>
  <polygon points="219.18 437.98 230.95 437.98 218.9 435.18 219.18 437.98" style="fill: #10375c; stroke-width: 0px;"/>
  <path d="M322.05,447.21l41.78,15.18-78.98-1.25c-43.37.44-153.69.16-198.33,0l-48.84-7.56,24.62-9.67,16.77-1.74,60.57-36.27,79.58.83.45,28.81.42-.58,9.76-1.87,14.97-.58,27.91,3.27,49.32,11.43Z" style="fill: #10375c; stroke-width: 0px;"/>
  <path d="M294.34,438.39l-27.6-1.9c-.92-.06-1.65-.81-1.69-1.74,0,0-2.69-66.17-2.69-66.17-.04-.9.6-1.69,1.48-1.86,2.63-.49,5.33-.73,8.01-.73,6.35,0,12.66,1.38,18.43,4.04.6.28,1,.85,1.05,1.51l4.94,64.9c.11,1.07-.87,2.05-1.93,1.95" style="fill: #f3c623; stroke-width: 0px;"/>
  <path d="M271.86,367.81c5.57-.23,14.08,1.98,17.67,3.87,1.65,21.63,3.29,43.26,4.94,64.9l-27.6-1.9-2.69-66.17c2-.37,4.62-.7,7.68-.7M271.86,364.19c-2.83,0-5.66.26-8.44.78-2.17.36-3.06,2.91-2.86,3.72.07,1.44,2.67,66.1,2.69,66.25,0,1.89,2.09,3.44,3.38,3.37.65,0,27.58,1.93,27.68,1.91,2.36.2,4.08-2.3,3.78-3.91-.05-.65-2.43-31.94-2.38-31.33-.08-.78-2.54-33.55-2.56-33.67-.14-1.33-1.01-2.48-2.25-2.99-5.96-2.72-12.48-4.13-19.03-4.13" style="fill: #10375c; stroke-width: 0px;"/>
  <path d="M221.04,434.77c15.92-6.5,33.55-4.37,50.12-2,8.32,1.36,16.59,3.03,24.65,5.54,23.45,8.91,48.5,11.64,73.38,14.13,16.61,1.55,33.27,2.67,49.94,3.33-33.39-.49-66.96-1.84-99.89-7.82-6.18-1.04-12.26-3.04-18.38-4.36-10.06-2.14-20.38-3.95-30.53-5.45-16.31-2.49-32.74-5.48-49.29-3.37" style="fill: #f4f6ff; stroke-width: 0px;"/>
  <path d="M211.86,434.77c18.53-1.63,35.11,9.05,52.67,12.49,4.75.97,9.77,1.64,14.62,1.83,40.29,1.1,83.71,2.59,123.91,6.68-31.82,1.14-65.05.45-96.95-.48-14.48-.75-34.89-.2-48.54-5.35-13.95-4.45-26.51-12.74-41.2-14.69-1.27-.14-3.3-.35-4.51-.48" style="fill: #f4f6ff; stroke-width: 0px;"/>
  <path d="M147.62,451.94c9.38-1.01,17.79-4.01,26.27-8.02,7.78-3.64,16.85-5.9,25.29-3.05,10.11,3.23,19.13,8.52,29.11,11.8,8.61,2.97,17.61,4.85,26.91,6.01-13.99,1.75-28.57-1.02-41.62-6.34-6.81-2.57-13.43-6.19-20.59-7.37-6.02-.72-11.85.95-17.55,2.93-8.71,3.19-18.48,5.36-27.81,4.04" style="fill: #f4f6ff; stroke-width: 0px;"/>
  <path d="M23.65,455.77c36.76-5.07,74.02-6.45,111.05-4.01-36.76,5.1-74.02,6.42-111.05,4.01" style="fill: #f4f6ff; stroke-width: 0px;"/>
  <path d="M86.62,461.13c65.81-2.48,132.52-2.5,198.33,0-65.81,2.5-132.52,2.48-198.33,0" style="fill: #f4f6ff; stroke-width: 0px;"/>
  <path d="M304.02,462.38c19.97-1.24,39.94-1.25,59.91,0-19.97,1.25-39.94,1.24-59.91,0" style="fill: #f4f6ff; stroke-width: 0px;"/>
  <polygon points="258.59 258.21 257.45 226.81 280.4 230.69 282.8 261.83 258.59 258.21" style="fill: #f3c623; stroke-width: 0px;"/>
  <path d="M259.34,228.97l19.36,3.27,2.12,27.46-20.47-3.06-1.01-27.67ZM255.55,224.65c.19,5.2,1.09,29.79,1.28,35.13,5.29.79,22.74,3.4,27.96,4.19-.4-5.12-2.28-29.54-2.69-34.83-5.08-.86-21.55-3.64-26.55-4.49Z" style="fill: #10375c; stroke-width: 0px;"/>
  <line x1="268.98" y1="230.04" x2="270.6" y2="258.82" style="fill: #f3c623; stroke-width: 0px;"/>
  <rect x="269.34" y="230.01" width=".91" height="28.83" transform="translate(-13.34 15.59) rotate(-3.23)" style="fill: #10375c; stroke-width: 0px;"/>
  <path d="M143.22,378.31s-10.34,0-23.98,29.62c0,0-1.8,4.86-4.63,7.31-2.83,2.46-9.83,4.79-13.15,10.57,0,0-9.83-.61-14.38,2.58-4.55,3.2-7.99,12.17-10.69,12.17h-12.91c-1.99,0-4.78.13-8.2,2.6-3.42,2.47-13.53,9.55-17.51,10.43-3.98.88,8.12-1.43,16.08-4.94,7.96-3.5,8.36-3.18,12.34-3.34,3.98-.16,49.89-1.9,57.77-7.31,7.88-5.41-1.02-19.96,14.33-22.34l4.92-37.33Z" style="fill: #eb8317; stroke-width: 0px;"/>
  <path d="M90.11,443.89h44.34l5.18-38s-9.42,5.66-13.84,17.63c0,0-2.6,4.16-6.5,4.68-3.9.52-12.69,3.48-13.73,6.97-1.04,3.49-14.45,3.6-15.45,8.72" style="fill: #f3c623; stroke-width: 0px;"/>
  <polygon points="88.67 448.27 92.57 445.02 108.86 436.31 139.63 423.51 176.86 412.89 173.71 422.08 140.59 448.27 88.67 448.27" style="fill: #10375c; stroke-width: 0px;"/>
  <path d="M91.39,446c22.2-16.17,49.62-28.14,76.81-32.29,2.87-.38,5.77-.59,8.65-.82-29.84,7.33-57.96,19.6-85.47,33.11" style="fill: #eb8317; stroke-width: 0px;"/>
</svg>