<?xml version="1.0" encoding="UTF-8"?>
<svg id="Layer_1" data-name="Layer 1" xmlns="http://www.w3.org/2000/svg" viewBox="0 0 949.02 464.17">
  <g>
    <polygon points="553.42 88.67 505.73 88.67 476.68 59.62 452.85 35.76 476.68 11.93 553.42 88.67" style="fill: #f3c623; stroke-width: 0px;"/>
    <polygon points="476.68 59.62 447.63 88.67 399.94 88.67 452.85 35.76 476.68 59.62" style="fill: #eb8317; stroke-width: 0px;"/>
  </g>
  <polygon points="399.94 375.49 447.63 375.49 476.69 404.53 505.73 375.49 553.43 375.49 476.69 452.24 399.94 375.49" style="fill: #c2c5cc; stroke-width: 0px;"/>
  <g>
    <path d="M149.68,262.86c-8.87,0-16.79-1.35-23.75-4.06-6.96-2.71-12.42-6.77-16.39-12.19-3.97-5.42-5.95-12.24-5.95-20.46,0-3.55.44-7.73,1.33-12.54.89-4.81,2.92-10.95,6.09-18.42l19.47,6.73c-1.78,4.95-3.04,8.87-3.78,11.77-.75,2.9-1.12,5.79-1.12,8.69,0,5.32,1.96,9.83,5.88,13.52,3.92,3.69,10.18,5.53,18.77,5.53,9.9,0,17.04-2.03,21.44-6.09,4.39-4.06,6.58-9.5,6.58-16.32,0-3.92-.75-8.78-2.24-14.57-1.5-5.79-3.32-12.09-5.46-18.91l22.14-5.6c1.21,5.42,2.26,9.72,3.15,12.89.89,3.18,1.56,5.51,2.03,7.01,1.31,4.11,2.96,6.79,4.97,8.06,2.01,1.26,4.69,1.85,8.06,1.75,2.24,0,4.18-.28,5.81-.84,1.63-.56,3.06-1.77,4.27-3.64,1.21-1.87,2.29-4.76,3.22-8.69.93-3.92,1.82-9.25,2.66-15.97l20.74,3.22c-.56,3.46-1.12,6.98-1.68,10.58-.56,3.6-.84,6.33-.84,8.2,0,1.96.89,3.64,2.66,5.04,1.77,1.4,5.23,2.1,10.37,2.1,3.92,0,6.89-.7,8.9-2.1,2.01-1.4,3.01-3.97,3.01-7.71s-.75-8.17-2.24-13.87c-1.5-5.7-3.36-11.77-5.6-18.21l21.3-6.3c1.59,4.3,2.99,8.83,4.2,13.59,1.21,4.76,2.17,9.34,2.87,13.73.7,4.39,1.05,8.22,1.05,11.49,0,10.09-3.01,17.75-9.04,22.98-6.02,5.23-14.27,7.85-24.73,7.85-5.23,0-9.86-.86-13.87-2.59-4.02-1.73-6.87-4.5-8.55-8.34-2.71,4.76-5.88,7.78-9.53,9.04s-7.52,1.89-11.63,1.89c-2.43,0-4.95-.28-7.57-.84-2.62-.56-5-1.63-7.15-3.22-.93,7.66-3.69,14.15-8.27,19.47-4.58,5.32-10.49,9.39-17.72,12.19-7.24,2.8-15.2,4.2-23.89,4.2Z" style="fill: #f4f6ff; stroke-width: 0px;"/>
    <path d="M306.32,262.58l-3.78-20.46c9.53-.93,17.42-2.45,23.68-4.55,6.26-2.1,10.83-5.44,13.73-10.02-3.18,1.12-6.54,1.68-10.09,1.68-4.3,0-8.24-.72-11.84-2.17-3.6-1.45-6.49-3.73-8.69-6.87-2.2-3.13-3.29-7.17-3.29-12.12,0-4.39.72-8.71,2.17-12.96,1.45-4.25,3.48-8.13,6.09-11.63,2.61-3.5,5.7-6.28,9.25-8.34,3.55-2.05,7.47-3.08,11.77-3.08,4.86,0,9.15,1.19,12.89,3.57,3.73,2.38,6.82,5.49,9.25,9.32,2.43,3.83,4.27,8.03,5.53,12.61,1.26,4.58,1.89,9.06,1.89,13.45,0,15.41-5.02,27.58-15.06,36.5-10.04,8.92-24.54,13.94-43.5,15.06ZM326.63,204.01c0,4.2,2.8,6.3,8.41,6.3,2.8,0,5.65-.47,8.55-1.4-.37-4.48-1.33-8.29-2.87-11.42-1.54-3.13-3.62-4.69-6.23-4.69-1.59,0-2.97.61-4.13,1.82-1.17,1.21-2.08,2.69-2.73,4.41-.65,1.73-.98,3.39-.98,4.97Z" style="fill: #f4f6ff; stroke-width: 0px;"/>
    <path d="M417.14,231.05c-9.06,0-16.07-.91-21.02-2.73-4.95-1.82-8.41-4.62-10.37-8.41-1.96-3.78-3.08-8.62-3.36-14.5l-3.08-79.44h21.72l3.08,68.51c.19,4.48.7,7.8,1.54,9.95.84,2.15,2.26,3.55,4.27,4.2,2.01.65,4.88.98,8.62.98,4.02,0,6.89,1.03,8.62,3.08,1.73,2.06,2.59,4.53,2.59,7.43,0,3.27-1.07,5.91-3.22,7.92-2.15,2.01-5.28,3.01-9.39,3.01Z" style="fill: #f4f6ff; stroke-width: 0px;"/>
    <path d="M476.54,231.47c-4.2,0-8.66-.51-13.38-1.54-4.72-1.03-9.23-2.61-13.52-4.76-4.76,1.96-9.88,3.43-15.34,4.41-5.46.98-11.14,1.47-17.02,1.47l1.4-21.44c2.33,0,4.55-.02,6.66-.07,2.1-.05,4.08-.12,5.95-.21-1.59-2.43-2.8-5.09-3.64-7.99-.84-2.89-1.26-6.02-1.26-9.39,0-4.67,1.12-8.97,3.36-12.89,2.24-3.92,5.56-6.82,9.95-8.69-2.15-1.49-4.48-3.03-7-4.62l11.21-16.11c9.9,6.82,18.33,12.84,25.29,18.07,6.96,5.23,12.66,9.83,17.09,13.8,4.44,3.97,7.89,7.52,10.37,10.65,2.47,3.13,4.2,6.02,5.18,8.69.98,2.66,1.47,5.3,1.47,7.92,0,7.29-2.34,12.89-7.01,16.81-4.67,3.92-11.26,5.88-19.75,5.88ZM445.16,191.26c0,2.71.51,5.14,1.54,7.29,1.03,2.15,2.43,4.02,4.2,5.6,2.24-1.77,3.92-3.85,5.04-6.23,1.12-2.38,1.68-4.74,1.68-7.08s-.49-4.55-1.47-6.38c-.98-1.82-2.5-2.73-4.55-2.73s-3.76.94-4.83,2.8c-1.07,1.87-1.61,4.11-1.61,6.73ZM482.99,207.1c0-1.49-.54-3.13-1.61-4.9-1.07-1.77-3.29-4.11-6.65-7-.28,3.18-.98,6.14-2.1,8.9-1.12,2.76-2.62,5.3-4.48,7.64,2.43.37,4.86.56,7.29.56,2.71,0,4.65-.49,5.81-1.47,1.17-.98,1.75-2.22,1.75-3.71Z" style="fill: #f4f6ff; stroke-width: 0px;"/>
    <path d="M609.08,233.29c-10.84,0-19.92-.84-27.25-2.52-7.33-1.68-13.15-4.02-17.44-7.01-4.3-2.99-7.38-6.44-9.25-10.37-1.87-3.92-2.8-8.13-2.8-12.61,0-4.95.61-9.83,1.82-14.64,1.21-4.81,2.33-8.99,3.36-12.54l18.91,4.48c-.65,2.71-1.29,5.53-1.89,8.48-.61,2.94-.91,5.63-.91,8.06,0,3.46,1.21,6.47,3.64,9.04,2.43,2.57,6.49,4.58,12.19,6.02,5.7,1.45,13.45,2.17,23.26,2.17,11.49,0,21.32-.91,29.49-2.73,8.17-1.82,15.13-4.86,20.88-9.11,5.74-4.25,10.76-9.97,15.06-17.16l17.37,7.57c-.65,1.78-1.17,3.46-1.54,5.04-.37,1.59-.56,2.99-.56,4.2,0,3.08,1.33,5.51,3.99,7.29,2.66,1.78,7.12,2.66,13.38,2.66,4.02,0,6.87,1.03,8.55,3.08,1.68,2.06,2.52,4.53,2.52,7.43,0,3.27-1.05,5.91-3.15,7.92-2.1,2.01-5.21,3.01-9.32,3.01-8.59,0-15.55-1.4-20.88-4.2-5.32-2.8-8.83-6.68-10.51-11.63-6.73,6.26-16,10.84-27.81,13.73-11.82,2.89-25.52,4.34-41.12,4.34ZM609.92,167.59c-2.8,0-5.16-.98-7.08-2.94-1.92-1.96-2.87-4.29-2.87-7s.96-5.16,2.87-7.08,4.27-2.87,7.08-2.87,5.04.96,7,2.87c1.96,1.92,2.94,4.27,2.94,7.08s-.98,5.04-2.94,7-4.3,2.94-7,2.94ZM634.44,167.73c-2.71,0-5.02-.98-6.94-2.94-1.92-1.96-2.87-4.29-2.87-7s.96-5.18,2.87-7.15c1.91-1.96,4.22-2.94,6.94-2.94s5.07.98,7.08,2.94c2.01,1.96,3.01,4.34,3.01,7.15s-1,5.04-3.01,7c-2.01,1.96-4.37,2.94-7.08,2.94Z" style="fill: #f4f6ff; stroke-width: 0px;"/>
    <path d="M709.4,231.05l1.4-21.44c5.7,0,10.06-.33,13.1-.98,3.03-.65,5.14-1.8,6.3-3.43,1.17-1.63,1.75-3.85,1.75-6.66s-.35-6.07-1.05-9.81c-.7-3.73-1.61-7.54-2.73-11.42-1.12-3.88-2.2-7.45-3.22-10.72l20.88-5.6c1.12,3.27,2.29,7.01,3.5,11.21,1.21,4.2,2.22,8.59,3.01,13.17.79,4.58,1.19,9.11,1.19,13.59,0,6.82-1.15,12.35-3.43,16.6-2.29,4.25-5.46,7.5-9.53,9.74s-8.76,3.76-14.08,4.55c-5.32.79-11.02,1.19-17.09,1.19ZM721.58,263.56c-2.8,0-5.18-.96-7.15-2.87-1.96-1.92-2.94-4.27-2.94-7.08s.98-5.18,2.94-7.15,4.34-2.94,7.15-2.94,5.04.98,7.01,2.94,2.94,4.34,2.94,7.15-.98,5.16-2.94,7.08c-1.96,1.91-4.3,2.87-7.01,2.87ZM746.1,263.56c-2.8,0-5.16-.96-7.08-2.87-1.92-1.92-2.87-4.27-2.87-7.08s.96-5.18,2.87-7.15c1.91-1.96,4.27-2.94,7.08-2.94s5.04.98,7.01,2.94,2.94,4.34,2.94,7.15-.98,5.16-2.94,7.08c-1.96,1.91-4.3,2.87-7.01,2.87Z" style="fill: #f4f6ff; stroke-width: 0px;"/>
    <path d="M817,153.72c0-2.43-.16-5.16-.49-8.2-.33-3.03-.72-6-1.19-8.9-.47-2.89-.89-5.37-1.26-7.43l21.3-2.8c.37,1.87.75,4.3,1.12,7.29.37,2.99.7,6.12.98,9.39.28,3.27.42,6.44.42,9.53,0,10.56-2.15,19.94-6.44,28.16,5.7,5.98,9.46,11.21,11.28,15.69s2.73,8.59,2.73,12.33c0,3.36-.79,6.7-2.38,10.02-1.59,3.32-4.2,6.07-7.85,8.27-3.64,2.2-8.5,3.29-14.57,3.29h-42.73v-22.14c11.95-8.31,21.06-16.25,27.32-23.82-4.95-3.83-10.63-7.92-17.02-12.26-6.4-4.34-13.19-8.66-20.39-12.96l10.51-17.51c7.75,4.67,14.66,9.06,20.74,13.17,6.07,4.11,11.44,7.99,16.11,11.63,1.21-4.11,1.82-8.36,1.82-12.75ZM802.84,210.32h10.23c4.76,0,7.89-.44,9.39-1.33,1.49-.89,2.24-2.12,2.24-3.71,0-1.87-1.82-4.72-5.46-8.55-2.34,2.34-4.86,4.65-7.57,6.94-2.71,2.29-5.65,4.51-8.83,6.66Z" style="fill: #f4f6ff; stroke-width: 0px;"/>
  </g>
  <g>
    <path d="M216.48,286.55c-1.02,0-1.87-.31-2.54-.95-.67-.63-1-1.57-1-2.83s.34-2.25,1-2.87c.67-.61,1.52-.92,2.54-.92,1.1,0,1.96.33,2.57.97.61.65.92,1.59.92,2.81s-.31,2.11-.95,2.78c-.63.67-1.48,1-2.54,1ZM226.64,286.55c-1.1,0-1.97-.33-2.6-1-.63-.67-.95-1.6-.95-2.78s.31-2.16.95-2.81c.63-.65,1.5-.97,2.6-.97s1.96.33,2.57,1c.61.67.92,1.59.92,2.78s-.31,2.06-.92,2.75c-.61.69-1.47,1.03-2.57,1.03Z" style="fill: #f4f6ff; stroke-width: 0px;"/>
    <path d="M223.74,325.6c-3.31,0-6.14-.55-8.51-1.65-2.36-1.1-4.16-2.7-5.4-4.78-1.24-2.09-1.86-4.59-1.86-7.5,0-3.11.69-5.78,2.07-8,1.38-2.22,3.31-3.93,5.79-5.11,2.48-1.18,5.38-1.77,8.68-1.77h3.13v-3.49h6.32v26.88h6.97c.2,0,.3.08.3.24v4.9c0,.2-.1.3-.3.3h-17.19ZM227.7,320.16v-17.96h-3.01c-3.27,0-5.79.82-7.56,2.45-1.77,1.63-2.66,3.97-2.66,7,0,2.76.8,4.86,2.39,6.32,1.6,1.46,3.87,2.19,6.82,2.19h4.02Z" style="fill: #f4f6ff; stroke-width: 0px;"/>
    <path d="M240.34,325.6c-.2,0-.3-.1-.3-.3v-4.9c0-.16.1-.24.3-.24h24.28v-10.4c0-2.76-.87-4.81-2.6-6.17-1.73-1.36-4.33-2.04-7.8-2.04h-10.04v-5.32c.67-1.38,1.43-2.71,2.27-3.99.85-1.28,1.8-2.55,2.86-3.81,2.25-2.56,4.76-4.84,7.56-6.85,2.8-2.01,5.63-3.54,8.51-4.61l2.36,5.61c-1.77.63-3.54,1.46-5.32,2.48-1.77,1.02-3.44,2.15-4.99,3.37-1.56,1.22-2.92,2.49-4.11,3.81-1.18,1.32-2.13,2.61-2.84,3.87h4.19c5.32,0,9.34,1.08,12.08,3.25,2.74,2.17,4.11,5.3,4.11,9.39v16.83h-30.54Z" style="fill: #f4f6ff; stroke-width: 0px;"/>
    <path d="M291.73,325.6v1.24c0,2.68-.44,4.98-1.33,6.91-.89,1.93-2.16,3.42-3.81,4.46-1.65,1.04-3.66,1.57-6.02,1.57-1.3,0-2.56-.17-3.78-.5-1.22-.33-2.5-.9-3.84-1.68l2.19-4.55c.98.51,1.82.85,2.51,1,.69.16,1.45.24,2.27.24,1.73,0,3.09-.68,4.08-2.04.98-1.36,1.48-3.14,1.48-5.35v-30.13h6.26v23.39h7.44c.2,0,.3.08.3.24v4.9c0,.2-.1.3-.3.3h-7.44Z" style="fill: #f4f6ff; stroke-width: 0px;"/>
    <path d="M304.26,289.03c-1.02,0-1.87-.31-2.54-.95-.67-.63-1-1.57-1-2.83s.34-2.25,1-2.87c.67-.61,1.52-.92,2.54-.92,1.1,0,1.96.33,2.57.97.61.65.92,1.59.92,2.81s-.31,2.11-.95,2.78c-.63.67-1.48,1-2.54,1ZM314.42,289.03c-1.1,0-1.97-.33-2.6-1-.63-.67-.95-1.6-.95-2.78s.31-2.16.95-2.81c.63-.65,1.5-.97,2.6-.97s1.96.33,2.57,1c.61.67.92,1.59.92,2.78s-.31,2.06-.92,2.75c-.61.69-1.47,1.03-2.57,1.03Z" style="fill: #f4f6ff; stroke-width: 0px;"/>
    <path d="M298.59,325.6c-.2,0-.3-.1-.3-.3v-4.9c0-.16.1-.24.3-.24h9.45v-23.39h6.44v23.39h8.86c.2,0,.3.08.3.24v4.9c0,.2-.1.3-.3.3h-24.75Z" style="fill: #f4f6ff; stroke-width: 0px;"/>
    <path d="M346.61,296.3c-1.02,0-1.87-.31-2.54-.95-.67-.63-1-1.57-1-2.83s.34-2.25,1-2.87c.67-.61,1.52-.92,2.54-.92,1.1,0,1.96.33,2.57,1,.61.67.92,1.59.92,2.78s-.3,2.06-.92,2.75c-.61.69-1.47,1.03-2.57,1.03ZM351.63,287.79c-.87,0-1.6-.27-2.22-.8-.61-.53-.92-1.39-.92-2.57s.31-2.04.92-2.57c.61-.53,1.35-.8,2.22-.8s1.66.29,2.27.86c.61.57.92,1.41.92,2.51s-.31,1.94-.92,2.51c-.61.57-1.37.86-2.27.86ZM356.77,296.3c-1.1,0-1.97-.33-2.6-1-.63-.67-.95-1.6-.95-2.78s.31-2.16.95-2.81c.63-.65,1.5-.97,2.6-.97s1.96.33,2.57,1c.61.67.92,1.59.92,2.78s-.31,2.06-.92,2.75c-.61.69-1.47,1.03-2.57,1.03Z" style="fill: #f4f6ff; stroke-width: 0px;"/>
    <path d="M362.5,325.6c-1.73,0-3.36-.32-4.87-.97-1.52-.65-3.02-1.74-4.52-3.28-.95,1.3-2.18,2.33-3.69,3.1-1.52.77-3.3,1.15-5.35,1.15h-21.32c-.2,0-.3-.1-.3-.3v-4.9c0-.16.1-.24.3-.24h8.09v-18.78h6.26v18.78h5.97c1.89,0,3.35-.6,4.37-1.8,1.02-1.2,1.54-2.88,1.54-5.05v-11.93h6.26v13.47c0,.35-.04.71-.12,1.06.98,1.58,2.03,2.68,3.13,3.31,1.1.63,2.5.94,4.19.94h3.66v-23.39h6.26v23.39h7.86c.2,0,.3.08.3.24v4.9c0,.2-.1.3-.3.3h-17.72Z" style="fill: #f4f6ff; stroke-width: 0px;"/>
    <path d="M379.63,325.6c-.2,0-.3-.1-.3-.3v-4.9c0-.16.1-.24.3-.24h7.09c-.67-1.69-1.16-3.33-1.48-4.9-.32-1.57-.47-3.09-.47-4.55,0-1.73.21-3.46.62-5.17.41-1.71,1.01-3.26,1.8-4.64,1.57-1.18,3.35-2.11,5.32-2.78,1.97-.67,3.9-1,5.79-1,1.26,0,2.46.14,3.6.41,1.14.28,2.19.69,3.13,1.24,1.97,1.1,3.49,2.68,4.58,4.73,1.08,2.05,1.62,4.37,1.62,6.97,0,1.58-.15,3.02-.44,4.34-.3,1.32-.74,2.55-1.33,3.69-1.22,2.28-2.93,4.04-5.14,5.26-2.21,1.22-4.69,1.83-7.44,1.83h-17.25ZM391.03,310.47c0,1.54.14,3.08.41,4.64.28,1.56.79,3.24,1.54,5.05h3.54c1.69,0,3.15-.39,4.37-1.18,1.22-.79,2.17-1.91,2.84-3.37.67-1.46,1-3.17,1-5.14,0-2.36-.62-4.27-1.86-5.73-1.24-1.46-2.79-2.19-4.64-2.19-1.14,0-2.26.2-3.37.59-1.1.39-2.13.91-3.07,1.54-.32.91-.52,1.83-.62,2.78-.1.95-.15,1.95-.15,3.01Z" style="fill: #f4f6ff; stroke-width: 0px;"/>
    <path d="M471.37,325.6c-.12,4.69-1.46,8.22-4.02,10.6-2.56,2.38-6.42,3.57-11.58,3.57h-3.66c-1.46,0-2.81-.18-4.05-.53-1.24-.35-2.37-.89-3.4-1.59-1.85-1.3-3.29-3.1-4.31-5.4-1.02-2.3-1.54-4.99-1.54-8.06,0-1.61.1-3.23.3-4.84.2-1.61.49-3.17.89-4.67.39-1.5.87-2.87,1.42-4.13h5.91c-.67,1.81-1.17,3.88-1.51,6.2-.33,2.32-.5,4.8-.5,7.44,0,3.19.68,5.68,2.04,7.47,1.36,1.79,3.26,2.69,5.7,2.69h2.48c2.2,0,4.02-.35,5.43-1.06,1.42-.71,2.46-1.77,3.13-3.19.67-1.42,1-3.17,1-5.26v-44.13h6.32v39.46h6.85c.2,0,.3.08.3.24v4.9c0,.2-.1.3-.3.3h-6.91Z" style="fill: #f4f6ff; stroke-width: 0px;"/>
    <path d="M484.77,320.16c-.67-1.69-1.16-3.33-1.48-4.9-.32-1.57-.47-3.09-.47-4.55,0-1.73.21-3.46.62-5.17.41-1.71,1.01-3.26,1.8-4.64,1.57-1.18,3.35-2.11,5.32-2.78,1.97-.67,3.9-1,5.79-1,1.26,0,2.46.14,3.6.41,1.14.28,2.19.69,3.13,1.24,1.97,1.1,3.49,2.68,4.58,4.73,1.08,2.05,1.62,4.37,1.62,6.97,0,1.22-.1,2.38-.3,3.49-.2,1.1-.49,2.17-.89,3.19.79,1.1,1.68,1.88,2.69,2.33,1,.45,2.31.68,3.93.68h.3c.2,0,.3.08.3.24v4.9c0,.2-.1.3-.3.3h-.3c-2.09,0-3.88-.29-5.38-.86-1.5-.57-2.93-1.58-4.31-3.04-1.34,1.3-2.89,2.27-4.64,2.92-1.75.65-3.57.97-5.46.97h-17.25c-.2,0-.3-.1-.3-.3v-4.9c0-.16.1-.24.3-.24h7.09ZM489.09,310.47c0,1.54.14,3.08.41,4.64.28,1.56.79,3.24,1.54,5.05h3.54c1.69,0,3.15-.39,4.37-1.18,1.22-.79,2.17-1.91,2.84-3.37.67-1.46,1-3.17,1-5.14,0-2.36-.62-4.27-1.86-5.73-1.24-1.46-2.79-2.19-4.64-2.19-1.14,0-2.26.2-3.37.59-1.1.39-2.13.91-3.07,1.54-.32.91-.52,1.83-.62,2.78-.1.95-.15,1.95-.15,3.01Z" style="fill: #f4f6ff; stroke-width: 0px;"/>
    <path d="M514.43,325.6c-.2,0-.3-.1-.3-.3v-4.9c0-.16.1-.24.3-.24h9.1c-.91-.63-1.68-1.44-2.33-2.42-.65-.98-1.15-2.12-1.51-3.4-.35-1.28-.53-2.63-.53-4.05,0-2.95.6-5.48,1.8-7.59,1.2-2.11,2.91-3.72,5.14-4.84,2.22-1.12,4.83-1.68,7.83-1.68,1.73,0,3.39.18,4.96.53,1.57.35,2.85.77,3.84,1.24l-1.89,5.26c-1.3-.55-2.53-.95-3.69-1.21-1.16-.26-2.31-.38-3.46-.38-1.77,0-3.27.33-4.49,1-1.22.67-2.14,1.67-2.75,3.01-.61,1.34-.92,2.99-.92,4.96s.3,3.55.92,4.99c.61,1.44,1.48,2.56,2.6,3.37,1.12.81,2.41,1.21,3.87,1.21h10.57v5.43h-29.06Z" style="fill: #f4f6ff; stroke-width: 0px;"/>
    <path d="M578.58,286.55c-1.02,0-1.87-.31-2.54-.95-.67-.63-1-1.57-1-2.83s.34-2.25,1-2.87c.67-.61,1.52-.92,2.54-.92,1.1,0,1.96.33,2.57.97.61.65.92,1.59.92,2.81s-.31,2.11-.95,2.78c-.63.67-1.48,1-2.54,1ZM588.74,286.55c-1.1,0-1.97-.33-2.6-1-.63-.67-.95-1.6-.95-2.78s.31-2.16.95-2.81c.63-.65,1.5-.97,2.6-.97s1.96.33,2.57,1c.61.67.92,1.59.92,2.78s-.31,2.06-.92,2.75c-.61.69-1.47,1.03-2.57,1.03Z" style="fill: #f4f6ff; stroke-width: 0px;"/>
    <path d="M585.84,325.6c-3.31,0-6.14-.55-8.51-1.65-2.36-1.1-4.16-2.7-5.4-4.78-1.24-2.09-1.86-4.59-1.86-7.5,0-3.11.69-5.78,2.07-8,1.38-2.22,3.31-3.93,5.79-5.11,2.48-1.18,5.38-1.77,8.68-1.77h3.13v-3.49h6.32v26.88h6.97c.2,0,.3.08.3.24v4.9c0,.2-.1.3-.3.3h-17.19ZM589.8,320.16v-17.96h-3.01c-3.27,0-5.79.82-7.56,2.45-1.77,1.63-2.66,3.97-2.66,7,0,2.76.8,4.86,2.39,6.32,1.6,1.46,3.87,2.19,6.82,2.19h4.02Z" style="fill: #f4f6ff; stroke-width: 0px;"/>
    <path d="M602.44,325.6c-.2,0-.3-.1-.3-.3v-4.9c0-.16.1-.24.3-.24h24.81c-.75-.75-1.42-1.95-2.01-3.6-.59-1.65-1.14-3.8-1.65-6.44-.35-2.13-.83-3.81-1.42-5.05-.59-1.24-1.35-2.13-2.27-2.66-.93-.53-2.14-.8-3.63-.8-1.34,0-2.69.19-4.05.56-1.36.38-2.79.96-4.28,1.74l-2.24-4.9c1.69-1.02,3.46-1.75,5.32-2.19,1.85-.43,3.82-.65,5.91-.65,1.18,0,2.26.09,3.25.27.98.18,1.87.44,2.66.8,1.81.83,3.25,2.08,4.31,3.75,1.06,1.67,1.85,4.1,2.36,7.29.35,2.17.75,4.04,1.18,5.61.43,1.58.92,2.88,1.45,3.9.53,1.02,1.09,1.83,1.68,2.42v5.38h-31.37Z" style="fill: #f4f6ff; stroke-width: 0px;"/>
    <path d="M657.67,320.16c.2,0,.3.08.3.24v4.9c0,.2-.1.3-.3.3h-14.12v-44.89h6.44v39.46h7.68Z" style="fill: #f4f6ff; stroke-width: 0px;"/>
    <path d="M696.84,325.6c-1.73,0-3.36-.32-4.87-.97-1.52-.65-3.02-1.74-4.52-3.28-.95,1.3-2.18,2.33-3.69,3.1-1.52.77-3.3,1.15-5.35,1.15h-21.32c-.2,0-.3-.1-.3-.3v-4.9c0-.16.1-.24.3-.24h8.09v-18.78h6.26v18.78h5.97c1.89,0,3.35-.6,4.37-1.8,1.02-1.2,1.54-2.88,1.54-5.05v-11.93h6.26v13.47c0,.35-.04.71-.12,1.06.98,1.58,2.03,2.68,3.13,3.31,1.1.63,2.5.94,4.19.94h3.66v-23.39h6.26v23.39h7.86c.2,0,.3.08.3.24v4.9c0,.2-.1.3-.3.3h-17.72Z" style="fill: #f4f6ff; stroke-width: 0px;"/>
    <path d="M713.97,325.6c-.2,0-.3-.1-.3-.3v-4.9c0-.16.1-.24.3-.24h7.09c-.67-1.69-1.16-3.33-1.48-4.9-.32-1.57-.47-3.09-.47-4.55,0-1.73.21-3.46.62-5.17.41-1.71,1.01-3.26,1.8-4.64,1.57-1.18,3.35-2.11,5.32-2.78,1.97-.67,3.9-1,5.79-1,1.26,0,2.46.14,3.6.41,1.14.28,2.19.69,3.13,1.24,1.97,1.1,3.49,2.68,4.58,4.73,1.08,2.05,1.62,4.37,1.62,6.97,0,1.58-.15,3.02-.44,4.34-.3,1.32-.74,2.55-1.33,3.69-1.22,2.28-2.93,4.04-5.14,5.26-2.21,1.22-4.69,1.83-7.44,1.83h-17.25ZM725.37,310.47c0,1.54.14,3.08.41,4.64.28,1.56.79,3.24,1.54,5.05h3.54c1.69,0,3.15-.39,4.37-1.18,1.22-.79,2.17-1.91,2.84-3.37.67-1.46,1-3.17,1-5.14,0-2.36-.62-4.27-1.86-5.73-1.24-1.46-2.79-2.19-4.64-2.19-1.14,0-2.26.2-3.37.59-1.1.39-2.13.91-3.07,1.54-.32.91-.52,1.83-.62,2.78-.1.95-.15,1.95-.15,3.01Z" style="fill: #f4f6ff; stroke-width: 0px;"/>
  </g>
</svg>