<?xml version="1.0" encoding="UTF-8"?>
<svg id="Layer_1" data-name="Layer 1" xmlns="http://www.w3.org/2000/svg" viewBox="0 0 949.02 464.17">
  <g>
    <path d="M11.29,239.29v-99.43h25.64v77.07h39.95v22.36H11.29Z" style="fill: #f4f6ff; stroke-width: 0px;"/>
    <path d="M90.14,239.29v-99.43h25.64v99.43h-25.64Z" style="fill: #f4f6ff; stroke-width: 0px;"/>
    <path d="M182.41,138.22c21.76,0,35.18,10.73,42.48,23.1l-21.46,11.33c-4.02-6.56-11.63-11.78-21.02-11.78-16.25,0-27.73,12.52-27.73,28.77s11.48,28.77,27.73,28.77c7.75,0,14.76-2.68,18.78-5.96v-8.35h-22.81v-21.32h48v38.91c-10.73,11.78-25.19,19.38-43.97,19.38-29.66,0-53.81-19.83-53.81-51.43s24.15-51.43,53.81-51.43Z" style="fill: #f4f6ff; stroke-width: 0px;"/>
    <path d="M308.37,239.29v-39.95h-41.29v39.95h-25.64v-99.43h25.64v37.12h41.29v-37.12h25.64v99.43h-25.64Z" style="fill: #f4f6ff; stroke-width: 0px;"/>
    <path d="M374.11,239.29v-77.07h-27.88v-22.36h81.24v22.36h-27.73v77.07h-25.64Z" style="fill: #f4f6ff; stroke-width: 0px;"/>
    <path d="M506.63,239.29v-39.95h-41.29v39.95h-25.64v-99.43h25.64v37.12h41.29v-37.12h25.64v99.43h-25.64Z" style="fill: #f4f6ff; stroke-width: 0px;"/>
    <path d="M598.31,138.22c30.41,0,53.07,21.17,53.07,51.43s-22.66,51.43-53.07,51.43-53.21-21.17-53.21-51.43,22.81-51.43,53.21-51.43ZM598.31,160.88c-16.55,0-27.13,12.52-27.13,28.77s10.58,28.77,27.13,28.77,26.98-12.67,26.98-28.77-10.58-28.77-26.98-28.77Z" style="fill: #f4f6ff; stroke-width: 0px;"/>
    <path d="M664.35,139.86h26.09v58.28c0,11.78,6.26,20.27,20.12,20.27s19.97-8.5,19.97-20.27v-58.28h26.09v59.03c0,24.74-14.16,42.18-46.06,42.18s-46.21-17.59-46.21-42.04v-59.18Z" style="fill: #f4f6ff; stroke-width: 0px;"/>
    <path d="M780.92,206.05c7.16,7.16,18.19,13.12,31.75,13.12,8.79,0,14.16-3.73,14.16-8.5,0-5.66-6.41-7.9-16.99-10.14-16.4-3.28-39.35-7.45-39.35-31.01,0-16.69,14.16-31.15,39.65-31.15,15.95,0,29.81,4.77,40.4,13.86l-14.01,18.33c-8.35-6.86-19.23-10.29-28.02-10.29s-11.78,3.43-11.78,7.75c0,5.22,6.11,7.01,17.14,9.09,16.4,3.43,39.05,8.2,39.05,30.71,0,19.97-14.76,33.24-41.44,33.24-20.12,0-34.13-6.26-44.12-15.8l13.56-19.23Z" style="fill: #f4f6ff; stroke-width: 0px;"/>
    <path d="M864.84,239.29v-99.43h72.89v21.61h-47.25v16.55h46.21v21.76h-46.21v17.89h47.25v21.61h-72.89Z" style="fill: #f4f6ff; stroke-width: 0px;"/>
  </g>
  <g>
    <path d="M203.07,300.02c0-2.84.5-5.67,1.5-8.49,1-2.82,2.46-5.35,4.39-7.59,1.93-2.24,4.29-4.05,7.09-5.42,2.8-1.37,5.97-2.06,9.52-2.06,4.21,0,7.83.95,10.85,2.86,3.02,1.91,5.26,4.39,6.72,7.45l-4.73,3.06c-.71-1.51-1.56-2.77-2.56-3.79-1-1.02-2.09-1.84-3.26-2.46-1.18-.62-2.39-1.06-3.63-1.33-1.24-.27-2.46-.4-3.66-.4-2.62,0-4.94.54-6.96,1.63-2.02,1.09-3.72,2.51-5.09,4.26-1.38,1.75-2.41,3.73-3.09,5.92-.69,2.2-1.03,4.4-1.03,6.62,0,2.49.41,4.85,1.23,7.09.82,2.24,1.96,4.23,3.43,5.96s3.19,3.11,5.19,4.13c2,1.02,4.17,1.53,6.52,1.53,1.24,0,2.52-.16,3.83-.47,1.31-.31,2.56-.81,3.76-1.5,1.2-.69,2.32-1.55,3.36-2.6s1.9-2.3,2.56-3.76l4.99,2.73c-.76,1.77-1.81,3.34-3.16,4.69s-2.88,2.5-4.59,3.43c-1.71.93-3.52,1.64-5.42,2.13-1.91.49-3.77.73-5.59.73-3.24,0-6.21-.71-8.92-2.13-2.71-1.42-5.05-3.27-7.02-5.56-1.98-2.28-3.51-4.88-4.59-7.79-1.09-2.91-1.63-5.87-1.63-8.89Z" style="fill: #f4f6ff; stroke-width: 0px;"/>
    <path d="M265.76,324.65c-2.62,0-5-.49-7.16-1.46-2.15-.98-3.99-2.28-5.52-3.93-1.53-1.64-2.72-3.55-3.56-5.72-.84-2.17-1.26-4.46-1.26-6.86s.43-4.75,1.3-6.92c.87-2.17,2.06-4.08,3.59-5.72,1.53-1.64,3.37-2.95,5.52-3.93,2.15-.98,4.51-1.46,7.09-1.46s4.95.49,7.12,1.46c2.17.98,4.03,2.29,5.56,3.93,1.53,1.64,2.73,3.55,3.59,5.72.87,2.17,1.3,4.48,1.3,6.92s-.42,4.68-1.26,6.86c-.84,2.17-2.04,4.08-3.59,5.72-1.55,1.64-3.41,2.95-5.56,3.93-2.15.98-4.54,1.46-7.15,1.46ZM254.25,306.75c0,1.82.3,3.51.9,5.06.6,1.55,1.42,2.91,2.46,4.06,1.04,1.15,2.26,2.06,3.66,2.73,1.4.67,2.9,1,4.49,1s3.09-.33,4.49-1c1.4-.67,2.63-1.59,3.69-2.76,1.06-1.18,1.9-2.55,2.5-4.13.6-1.57.9-3.27.9-5.09s-.3-3.45-.9-5.02c-.6-1.57-1.43-2.95-2.5-4.13-1.06-1.18-2.3-2.1-3.69-2.76-1.4-.67-2.9-1-4.49-1s-3.1.34-4.49,1.03c-1.4.69-2.62,1.62-3.66,2.8-1.04,1.18-1.86,2.55-2.46,4.13-.6,1.58-.9,3.27-.9,5.09Z" style="fill: #f4f6ff; stroke-width: 0px;"/>
    <path d="M332.79,289.24h5.66l-14.78,34.74h-4.86l-6.99-16.97-6.92,16.97h-4.86l-14.78-34.74h5.59l11.98,28.95,5.86-14.44-5.99-14.44h4.86l4.26,11.11,4.26-11.11h4.86l-5.92,14.44,5.86,14.44,11.91-28.95Z" style="fill: #f4f6ff; stroke-width: 0px;"/>
    <path d="M357.88,324.65c-2.62,0-5-.49-7.16-1.46-2.15-.98-3.99-2.28-5.52-3.93-1.53-1.64-2.72-3.55-3.56-5.72-.84-2.17-1.26-4.46-1.26-6.86s.43-4.75,1.3-6.92c.87-2.17,2.06-4.08,3.59-5.72,1.53-1.64,3.37-2.95,5.52-3.93,2.15-.98,4.51-1.46,7.09-1.46s4.95.49,7.12,1.46c2.17.98,4.03,2.29,5.56,3.93,1.53,1.64,2.73,3.55,3.59,5.72.87,2.17,1.3,4.48,1.3,6.92s-.42,4.68-1.26,6.86c-.84,2.17-2.04,4.08-3.59,5.72-1.55,1.64-3.41,2.95-5.56,3.93-2.15.98-4.54,1.46-7.15,1.46ZM346.37,306.75c0,1.82.3,3.51.9,5.06.6,1.55,1.42,2.91,2.46,4.06,1.04,1.15,2.26,2.06,3.66,2.73,1.4.67,2.9,1,4.49,1s3.09-.33,4.49-1c1.4-.67,2.63-1.59,3.69-2.76,1.06-1.18,1.9-2.55,2.5-4.13.6-1.57.9-3.27.9-5.09s-.3-3.45-.9-5.02c-.6-1.57-1.43-2.95-2.5-4.13-1.06-1.18-2.3-2.1-3.69-2.76-1.4-.67-2.9-1-4.49-1s-3.1.34-4.49,1.03c-1.4.69-2.62,1.62-3.66,2.8-1.04,1.18-1.86,2.55-2.46,4.13-.6,1.58-.9,3.27-.9,5.09Z" style="fill: #f4f6ff; stroke-width: 0px;"/>
    <path d="M400.94,294.37c-2.93.09-5.51.84-7.75,2.26-2.24,1.42-3.83,3.39-4.76,5.92v21.43h-5.86v-34.74h5.46v8.05c1.2-2.4,2.77-4.34,4.73-5.82,1.95-1.49,4.04-2.32,6.26-2.5h1.13c.31,0,.58.02.8.07v5.32Z" style="fill: #f4f6ff; stroke-width: 0px;"/>
    <path d="M431.23,323.98l-11.98-16.97-6.66,6.26v10.72h-5.86v-48.59h5.86v31.95l17.84-18.04h6.46l-13.84,14.38,14.51,20.3h-6.32Z" style="fill: #f4f6ff; stroke-width: 0px;"/>
    <path d="M442.61,282.72v-7.32h5.86v7.32h-5.86ZM442.61,323.98v-34.74h5.86v34.74h-5.86Z" style="fill: #f4f6ff; stroke-width: 0px;"/>
    <path d="M488.06,323.98h-5.86v-19.43c0-3.73-.57-6.43-1.7-8.12-1.13-1.69-2.85-2.53-5.16-2.53-1.2,0-2.4.23-3.6.7-1.2.47-2.33,1.1-3.39,1.9s-2,1.75-2.8,2.86c-.8,1.11-1.4,2.33-1.8,3.66v20.97h-5.86v-34.74h5.32v7.45c1.37-2.44,3.36-4.39,5.96-5.86,2.6-1.46,5.43-2.2,8.49-2.2,2,0,3.66.37,4.99,1.1,1.33.73,2.4,1.75,3.2,3.06.8,1.31,1.36,2.85,1.7,4.63.33,1.78.5,3.71.5,5.79v20.77Z" style="fill: #f4f6ff; stroke-width: 0px;"/>
    <path d="M511.03,324.38c-2.35,0-4.52-.49-6.49-1.46-1.97-.98-3.67-2.28-5.09-3.93-1.42-1.64-2.52-3.53-3.29-5.66-.78-2.13-1.17-4.35-1.17-6.66,0-2.44.39-4.76,1.17-6.96.78-2.2,1.87-4.12,3.29-5.76,1.42-1.64,3.12-2.94,5.09-3.89,1.97-.95,4.16-1.43,6.56-1.43,2.93,0,5.46.71,7.59,2.13,2.13,1.42,3.93,3.22,5.39,5.39v-6.92h5.19v34.34c0,2.48-.47,4.67-1.4,6.56-.93,1.89-2.2,3.47-3.79,4.76-1.6,1.29-3.47,2.26-5.62,2.93-2.15.67-4.45,1-6.89,1-3.95,0-7.15-.68-9.62-2.03-2.46-1.35-4.52-3.23-6.16-5.62l3.39-2.99c1.37,2.04,3.15,3.57,5.32,4.59,2.17,1.02,4.53,1.53,7.05,1.53,1.6,0,3.12-.22,4.56-.67,1.44-.44,2.7-1.11,3.76-2,1.06-.89,1.92-2,2.56-3.33.64-1.33.96-2.91.96-4.73v-6.12c-.67,1.06-1.45,2.03-2.36,2.9-.91.87-1.9,1.6-2.96,2.2-1.07.6-2.2,1.05-3.39,1.36-1.2.31-2.42.47-3.66.47ZM512.82,319.59c1.24,0,2.44-.22,3.59-.67,1.15-.44,2.22-1.03,3.19-1.76.98-.73,1.8-1.56,2.46-2.5.67-.93,1.11-1.89,1.33-2.86v-9.98c-.49-1.2-1.12-2.28-1.9-3.26-.78-.98-1.65-1.83-2.63-2.56-.98-.73-2.03-1.3-3.16-1.7-1.13-.4-2.27-.6-3.43-.6-1.78,0-3.36.38-4.76,1.13-1.4.76-2.58,1.75-3.56,3-.98,1.24-1.73,2.65-2.26,4.23-.53,1.58-.8,3.16-.8,4.76,0,1.73.31,3.37.93,4.93.62,1.55,1.46,2.91,2.53,4.06,1.06,1.15,2.32,2.07,3.76,2.76,1.44.69,3.01,1.03,4.69,1.03Z" style="fill: #f4f6ff; stroke-width: 0px;"/>
    <path d="M584.24,286.64c-.53-.62-1.24-1.22-2.13-1.8-.89-.58-1.89-1.1-3-1.56-1.11-.47-2.32-.84-3.63-1.13-1.31-.29-2.67-.43-4.09-.43-3.68,0-6.38.69-8.09,2.06-1.71,1.38-2.56,3.26-2.56,5.66,0,1.29.24,2.35.73,3.19.49.84,1.25,1.56,2.3,2.16,1.04.6,2.34,1.12,3.89,1.56,1.55.44,3.39.91,5.52,1.4,2.44.53,4.65,1.14,6.62,1.83,1.97.69,3.66,1.54,5.06,2.56,1.4,1.02,2.46,2.26,3.2,3.73.73,1.46,1.1,3.26,1.1,5.39,0,2.26-.44,4.23-1.33,5.89-.89,1.66-2.1,3.04-3.63,4.13-1.53,1.09-3.34,1.89-5.42,2.4-2.09.51-4.35.77-6.79.77-3.64,0-7.09-.57-10.35-1.7-3.26-1.13-6.22-2.78-8.89-4.96l2.86-5.06c.71.75,1.63,1.51,2.76,2.26,1.13.75,2.42,1.43,3.86,2.03,1.44.6,3,1.09,4.66,1.46,1.66.38,3.41.57,5.23.57,3.37,0,5.99-.6,7.85-1.8,1.86-1.2,2.79-3,2.79-5.39,0-1.33-.3-2.45-.9-3.36-.6-.91-1.48-1.7-2.63-2.36-1.15-.67-2.58-1.25-4.29-1.76-1.71-.51-3.65-1.03-5.82-1.56-2.4-.58-4.5-1.2-6.32-1.86-1.82-.67-3.34-1.46-4.56-2.4-1.22-.93-2.14-2.06-2.76-3.39-.62-1.33-.93-2.93-.93-4.79,0-2.26.42-4.26,1.26-5.99.84-1.73,2.02-3.19,3.53-4.39,1.51-1.2,3.3-2.1,5.39-2.7,2.09-.6,4.35-.9,6.79-.9,3.2,0,6.08.49,8.65,1.46,2.57.98,4.86,2.29,6.86,3.93l-2.79,4.86Z" style="fill: #f4f6ff; stroke-width: 0px;"/>
    <path d="M614.79,324.65c-2.89,0-5.42-.71-7.62-2.13-2.2-1.42-3.94-3.22-5.22-5.39v21.03h-5.86v-48.92h5.19v6.52c1.38-2.13,3.16-3.85,5.36-5.16,2.2-1.31,4.62-1.96,7.29-1.96,2.4,0,4.59.49,6.59,1.46,2,.98,3.73,2.3,5.19,3.96s2.61,3.58,3.43,5.76c.82,2.17,1.23,4.44,1.23,6.79,0,2.49-.38,4.83-1.13,7.02-.75,2.2-1.82,4.1-3.19,5.72-1.38,1.62-3.02,2.91-4.93,3.86s-4.02,1.43-6.32,1.43ZM612.99,319.59c1.73,0,3.29-.37,4.69-1.1,1.4-.73,2.6-1.71,3.59-2.93,1-1.22,1.76-2.61,2.3-4.16.53-1.55.8-3.15.8-4.79,0-1.73-.31-3.38-.93-4.96-.62-1.57-1.46-2.95-2.53-4.13-1.07-1.18-2.32-2.11-3.76-2.8-1.44-.69-3.01-1.03-4.69-1.03-1.06,0-2.16.21-3.29.63-1.13.42-2.2.98-3.19,1.66-1,.69-1.86,1.51-2.6,2.46-.73.95-1.21,1.96-1.43,3.03v9.92c.49,1.15,1.11,2.23,1.86,3.23.75,1,1.62,1.86,2.6,2.6.98.73,2.02,1.31,3.13,1.73,1.11.42,2.26.63,3.46.63Z" style="fill: #f4f6ff; stroke-width: 0px;"/>
    <path d="M646.47,324.65c-1.64,0-3.17-.28-4.59-.83-1.42-.55-2.65-1.32-3.69-2.3-1.04-.98-1.86-2.12-2.46-3.43-.6-1.31-.9-2.74-.9-4.29s.35-3.05,1.06-4.36c.71-1.31,1.72-2.43,3.03-3.36,1.31-.93,2.86-1.66,4.66-2.2,1.8-.53,3.76-.8,5.89-.8,1.69,0,3.39.16,5.12.47,1.73.31,3.26.73,4.59,1.26v-2.8c0-2.84-.8-5.07-2.4-6.69-1.6-1.62-3.86-2.43-6.79-2.43-3.51,0-7.19,1.35-11.05,4.06l-1.93-3.79c4.48-3.02,8.99-4.53,13.51-4.53s8.13,1.22,10.68,3.66c2.55,2.44,3.83,5.88,3.83,10.32v14.18c0,1.38.62,2.09,1.86,2.13v5.06c-.62.09-1.13.15-1.53.2-.4.04-.82.07-1.26.07-1.15,0-2.08-.34-2.76-1.03-.69-.69-1.1-1.52-1.23-2.5l-.13-2.46c-1.55,2.09-3.52,3.67-5.89,4.76-2.37,1.09-4.91,1.63-7.62,1.63ZM648,320.26c2.08,0,4.03-.39,5.82-1.17,1.8-.78,3.16-1.81,4.09-3.09.84-.84,1.26-1.71,1.26-2.6v-5.12c-2.84-1.11-5.79-1.66-8.85-1.66s-5.31.62-7.16,1.86c-1.84,1.24-2.76,2.86-2.76,4.86,0,.98.19,1.89.57,2.73.38.84.91,1.58,1.6,2.2.69.62,1.5,1.11,2.43,1.46.93.36,1.93.53,3,.53Z" style="fill: #f4f6ff; stroke-width: 0px;"/>
    <path d="M672.09,306.55c0-2.44.42-4.75,1.26-6.92.84-2.17,2.04-4.07,3.59-5.69,1.55-1.62,3.4-2.91,5.56-3.86,2.15-.95,4.56-1.43,7.22-1.43,3.46,0,6.44.77,8.95,2.3s4.4,3.58,5.69,6.16l-5.72,1.8c-.89-1.64-2.13-2.92-3.73-3.83-1.6-.91-3.37-1.36-5.33-1.36-1.6,0-3.11.32-4.53.97-1.42.64-2.64,1.54-3.66,2.7-1.02,1.15-1.83,2.51-2.43,4.06-.6,1.55-.9,3.26-.9,5.12s.31,3.53.93,5.12c.62,1.6,1.45,2.98,2.5,4.16,1.04,1.18,2.26,2.1,3.66,2.76s2.9,1,4.49,1c1.02,0,2.03-.14,3.03-.43,1-.29,1.91-.68,2.73-1.17.82-.49,1.54-1.05,2.16-1.7.62-.64,1.06-1.34,1.33-2.1l5.72,1.73c-.53,1.29-1.28,2.46-2.23,3.53s-2.07,1.98-3.36,2.73c-1.29.75-2.72,1.35-4.29,1.8s-3.23.67-4.96.67c-2.62,0-5.01-.49-7.19-1.46-2.17-.98-4.04-2.28-5.59-3.93-1.55-1.64-2.76-3.56-3.63-5.76s-1.3-4.51-1.3-6.96Z" style="fill: #f4f6ff; stroke-width: 0px;"/>
    <path d="M726.4,324.65c-2.62,0-5.01-.48-7.19-1.43-2.17-.95-4.04-2.25-5.59-3.89-1.55-1.64-2.76-3.56-3.63-5.76-.87-2.2-1.3-4.51-1.3-6.96s.43-4.75,1.3-6.92c.87-2.17,2.08-4.08,3.66-5.72,1.57-1.64,3.45-2.94,5.62-3.89,2.17-.95,4.57-1.43,7.19-1.43s5,.49,7.16,1.46c2.15.98,3.98,2.27,5.49,3.89,1.51,1.62,2.67,3.51,3.49,5.66.82,2.15,1.23,4.38,1.23,6.69,0,.49-.01.93-.03,1.33s-.06.71-.1.93h-28.82c.13,1.73.53,3.31,1.2,4.73.67,1.42,1.53,2.64,2.6,3.66,1.06,1.02,2.27,1.82,3.63,2.4,1.35.58,2.78.87,4.29.87,1.07,0,2.11-.14,3.13-.43,1.02-.29,1.97-.68,2.86-1.17.89-.49,1.67-1.09,2.36-1.8.69-.71,1.21-1.51,1.56-2.4l5.06,1.4c-.58,1.29-1.36,2.46-2.36,3.53-1,1.06-2.15,1.99-3.46,2.76-1.31.78-2.76,1.39-4.36,1.83-1.6.44-3.26.67-4.99.67ZM738.32,304.28c-.13-1.64-.54-3.16-1.23-4.56-.69-1.4-1.55-2.58-2.6-3.56-1.04-.98-2.25-1.74-3.63-2.3-1.38-.55-2.84-.83-4.39-.83s-3.02.28-4.39.83c-1.38.56-2.59,1.33-3.63,2.33-1.04,1-1.89,2.19-2.53,3.56-.64,1.38-1.03,2.88-1.16,4.53h23.56Z" style="fill: #f4f6ff; stroke-width: 0px;"/>
  </g>
  <polygon points="549.77 88.67 502.08 88.67 473.03 59.62 449.19 35.76 473.03 11.93 549.77 88.67" style="fill: #f3c623; stroke-width: 0px;"/>
  <polygon points="473.03 59.62 443.97 88.67 396.28 88.67 449.19 35.76 473.03 59.62" style="fill: #eb8317; stroke-width: 0px;"/>
  <polygon points="396.28 375.49 443.98 375.49 473.03 404.53 502.08 375.49 549.77 375.49 473.03 452.24 396.28 375.49" style="fill: #c2c5cc; stroke-width: 0px;"/>
</svg>